<?xml version="1.0" encoding="UTF-8" standalone="no"?>
<!DOCTYPE svg PUBLIC "-//W3C//DTD SVG 1.1//EN"
 "http://www.w3.org/Graphics/SVG/1.1/DTD/svg11.dtd">
<!-- Generated by graphviz version 14.1.1 (20251213.1925)
 -->
<!-- Title: InheritanceTree Pages: 1 -->
<svg width="393pt" height="285pt"
 viewBox="0.00 0.00 393.00 285.00" xmlns="http://www.w3.org/2000/svg" xmlns:xlink="http://www.w3.org/1999/xlink">
<g id="graph0" class="graph" transform="scale(1 1) rotate(0) translate(4 280.5)">
<title>InheritanceTree</title>
<polygon fill="white" stroke="none" points="-4,4 -4,-280.5 389.25,-280.5 389.25,4 -4,4"/>
<text xml:space="preserve" text-anchor="middle" x="192.62" y="-7.2" font-family="Times New Roman,serif" font-size="14.00">simple_smtp &#45; Inheritance Hierarchy</text>
<!-- SIMPLE_SMTP -->
<g id="node1" class="node">
<title>SIMPLE_SMTP</title>
<path fill="none" stroke="black" d="M120.25,-60.5C120.25,-60.5 36.75,-60.5 36.75,-60.5 30.75,-60.5 24.75,-54.5 24.75,-48.5 24.75,-48.5 24.75,-36.5 24.75,-36.5 24.75,-30.5 30.75,-24.5 36.75,-24.5 36.75,-24.5 120.25,-24.5 120.25,-24.5 126.25,-24.5 132.25,-30.5 132.25,-36.5 132.25,-36.5 132.25,-48.5 132.25,-48.5 132.25,-54.5 126.25,-60.5 120.25,-60.5"/>
<text xml:space="preserve" text-anchor="middle" x="78.5" y="-37.45" font-family="Times New Roman,serif" font-size="14.00">SIMPLE_SMTP</text>
</g>
<!-- SIMPLE_SMTP_QUICK -->
<g id="node2" class="node">
<title>SIMPLE_SMTP_QUICK</title>
<path fill="none" stroke="black" d="M145,-132.5C145,-132.5 12,-132.5 12,-132.5 6,-132.5 0,-126.5 0,-120.5 0,-120.5 0,-108.5 0,-108.5 0,-102.5 6,-96.5 12,-96.5 12,-96.5 145,-96.5 145,-96.5 151,-96.5 157,-102.5 157,-108.5 157,-108.5 157,-120.5 157,-120.5 157,-126.5 151,-132.5 145,-132.5"/>
<text xml:space="preserve" text-anchor="middle" x="78.5" y="-109.45" font-family="Times New Roman,serif" font-size="14.00">SIMPLE_SMTP_QUICK</text>
</g>
<!-- LIB_TESTS -->
<g id="node3" class="node">
<title>LIB_TESTS</title>
<path fill="none" stroke="black" d="M108.62,-204.5C108.62,-204.5 48.38,-204.5 48.38,-204.5 42.38,-204.5 36.38,-198.5 36.38,-192.5 36.38,-192.5 36.38,-180.5 36.38,-180.5 36.38,-174.5 42.38,-168.5 48.38,-168.5 48.38,-168.5 108.62,-168.5 108.62,-168.5 114.62,-168.5 120.62,-174.5 120.62,-180.5 120.62,-180.5 120.62,-192.5 120.62,-192.5 120.62,-198.5 114.62,-204.5 108.62,-204.5"/>
<text xml:space="preserve" text-anchor="middle" x="78.5" y="-181.45" font-family="Times New Roman,serif" font-size="14.00">LIB_TESTS</text>
</g>
<!-- TEST_SET_BASE -->
<g id="node4" class="node">
<title>TEST_SET_BASE</title>
<path fill="none" stroke="black" d="M373.25,-204.5C373.25,-204.5 277,-204.5 277,-204.5 271,-204.5 265,-198.5 265,-192.5 265,-192.5 265,-180.5 265,-180.5 265,-174.5 271,-168.5 277,-168.5 277,-168.5 373.25,-168.5 373.25,-168.5 379.25,-168.5 385.25,-174.5 385.25,-180.5 385.25,-180.5 385.25,-192.5 385.25,-192.5 385.25,-198.5 379.25,-204.5 373.25,-204.5"/>
<text xml:space="preserve" text-anchor="middle" x="325.12" y="-181.45" font-family="Times New Roman,serif" font-size="14.00">TEST_SET_BASE</text>
</g>
<!-- LIB_TESTS&#45;&gt;TEST_SET_BASE -->
<g id="edge1" class="edge">
<title>LIB_TESTS&#45;&gt;TEST_SET_BASE</title>
<path fill="none" stroke="black" d="M120.9,-186.5C120.9,-186.5 253.32,-186.5 253.32,-186.5"/>
<polygon fill="none" stroke="black" points="253.32,-190 263.32,-186.5 253.32,-183 253.32,-190"/>
</g>
<!-- TEST_APP -->
<g id="node5" class="node">
<title>TEST_APP</title>
<path fill="none" stroke="black" d="M106.38,-276.5C106.38,-276.5 50.62,-276.5 50.62,-276.5 44.62,-276.5 38.62,-270.5 38.62,-264.5 38.62,-264.5 38.62,-252.5 38.62,-252.5 38.62,-246.5 44.62,-240.5 50.62,-240.5 50.62,-240.5 106.38,-240.5 106.38,-240.5 112.38,-240.5 118.38,-246.5 118.38,-252.5 118.38,-252.5 118.38,-264.5 118.38,-264.5 118.38,-270.5 112.38,-276.5 106.38,-276.5"/>
<text xml:space="preserve" text-anchor="middle" x="78.5" y="-253.45" font-family="Times New Roman,serif" font-size="14.00">TEST_APP</text>
</g>
</g>
</svg>
