<?xml version="1.0" encoding="UTF-8" standalone="no"?>
<!DOCTYPE svg PUBLIC "-//W3C//DTD SVG 1.1//EN"
 "http://www.w3.org/Graphics/SVG/1.1/DTD/svg11.dtd">
<!-- Generated by graphviz version 14.1.1 (20251213.1925)
 -->
<!-- Title: Dependencies Pages: 1 -->
<svg width="345pt" height="573pt"
 viewBox="0.00 0.00 345.00 573.00" xmlns="http://www.w3.org/2000/svg" xmlns:xlink="http://www.w3.org/1999/xlink">
<g id="graph0" class="graph" transform="scale(1 1) rotate(0) translate(4 568.5)">
<title>Dependencies</title>
<polygon fill="white" stroke="none" points="-4,4 -4,-568.5 341.25,-568.5 341.25,4 -4,4"/>
<text xml:space="preserve" text-anchor="middle" x="168.62" y="-7.2" font-family="Times New Roman,serif" font-size="14.00">simple_smtp &#45; Dependencies</text>
<!-- simple_smtp -->
<g id="node1" class="node">
<title>simple_smtp</title>
<polygon fill="lightblue" stroke="black" points="86.5,-312.5 0,-312.5 0,-276.5 86.5,-276.5 86.5,-312.5"/>
<text xml:space="preserve" text-anchor="middle" x="43.25" y="-289.45" font-family="Times New Roman,serif" font-size="14.00">simple_smtp</text>
</g>
<!-- simple_datetime -->
<g id="node2" class="node">
<title>simple_datetime</title>
<polygon fill="lightblue" stroke="black" points="337.25,-564.5 230.5,-564.5 230.5,-528.5 337.25,-528.5 337.25,-564.5"/>
<text xml:space="preserve" text-anchor="middle" x="283.88" y="-541.45" font-family="Times New Roman,serif" font-size="14.00">simple_datetime</text>
</g>
<!-- simple_smtp&#45;&gt;simple_datetime -->
<g id="edge1" class="edge">
<title>simple_smtp&#45;&gt;simple_datetime</title>
<path fill="none" stroke="black" stroke-dasharray="5,2" d="M17.25,-312.62C17.25,-370.4 17.25,-546.5 17.25,-546.5 17.25,-546.5 218.73,-546.5 218.73,-546.5"/>
<polygon fill="black" stroke="black" points="218.73,-550 228.73,-546.5 218.73,-543 218.73,-550"/>
</g>
<!-- simple_base64 -->
<g id="node3" class="node">
<title>simple_base64</title>
<polygon fill="lightblue" stroke="black" points="332.38,-492.5 235.38,-492.5 235.38,-456.5 332.38,-456.5 332.38,-492.5"/>
<text xml:space="preserve" text-anchor="middle" x="283.88" y="-469.45" font-family="Times New Roman,serif" font-size="14.00">simple_base64</text>
</g>
<!-- simple_smtp&#45;&gt;simple_base64 -->
<g id="edge2" class="edge">
<title>simple_smtp&#45;&gt;simple_base64</title>
<path fill="none" stroke="black" stroke-dasharray="5,2" d="M34.25,-312.75C34.25,-358.51 34.25,-474.5 34.25,-474.5 34.25,-474.5 223.64,-474.5 223.64,-474.5"/>
<polygon fill="black" stroke="black" points="223.64,-478 233.64,-474.5 223.64,-471 223.64,-478"/>
</g>
<!-- simple_uuid -->
<g id="node4" class="node">
<title>simple_uuid</title>
<polygon fill="lightblue" stroke="black" points="325.62,-420.5 242.12,-420.5 242.12,-384.5 325.62,-384.5 325.62,-420.5"/>
<text xml:space="preserve" text-anchor="middle" x="283.88" y="-397.45" font-family="Times New Roman,serif" font-size="14.00">simple_uuid</text>
</g>
<!-- simple_smtp&#45;&gt;simple_uuid -->
<g id="edge3" class="edge">
<title>simple_smtp&#45;&gt;simple_uuid</title>
<path fill="none" stroke="black" stroke-dasharray="5,2" d="M52.25,-312.82C52.25,-343.63 52.25,-402.5 52.25,-402.5 52.25,-402.5 230.15,-402.5 230.15,-402.5"/>
<polygon fill="black" stroke="black" points="230.15,-406 240.15,-402.5 230.15,-399 230.15,-406"/>
</g>
<!-- simple_logger -->
<g id="node5" class="node">
<title>simple_logger</title>
<polygon fill="lightblue" stroke="black" points="330.88,-348.5 236.88,-348.5 236.88,-312.5 330.88,-312.5 330.88,-348.5"/>
<text xml:space="preserve" text-anchor="middle" x="283.88" y="-325.45" font-family="Times New Roman,serif" font-size="14.00">simple_logger</text>
</g>
<!-- simple_smtp&#45;&gt;simple_logger -->
<g id="edge4" class="edge">
<title>simple_smtp&#45;&gt;simple_logger</title>
<path fill="none" stroke="black" stroke-dasharray="5,2" d="M69.25,-312.92C69.25,-321.78 69.25,-330.5 69.25,-330.5 69.25,-330.5 225,-330.5 225,-330.5"/>
<polygon fill="black" stroke="black" points="225,-334 235,-330.5 225,-327 225,-334"/>
</g>
<!-- simple_testing -->
<g id="node6" class="node">
<title>simple_testing</title>
<polygon fill="lightblue" stroke="black" points="331.62,-276.5 236.12,-276.5 236.12,-240.5 331.62,-240.5 331.62,-276.5"/>
<text xml:space="preserve" text-anchor="middle" x="283.88" y="-253.45" font-family="Times New Roman,serif" font-size="14.00">simple_testing</text>
</g>
<!-- simple_smtp&#45;&gt;simple_testing -->
<g id="edge5" class="edge">
<title>simple_smtp&#45;&gt;simple_testing</title>
<path fill="none" stroke="black" stroke-dasharray="5,2" d="M69.25,-276.08C69.25,-267.22 69.25,-258.5 69.25,-258.5 69.25,-258.5 224.2,-258.5 224.2,-258.5"/>
<polygon fill="black" stroke="black" points="224.2,-262 234.2,-258.5 224.2,-255 224.2,-262"/>
</g>
<!-- base -->
<g id="node7" class="node">
<title>base</title>
<polygon fill="lightgray" stroke="black" points="310.88,-204.5 256.88,-204.5 256.88,-168.5 310.88,-168.5 310.88,-204.5"/>
<text xml:space="preserve" text-anchor="middle" x="283.88" y="-181.45" font-family="Times New Roman,serif" font-size="14.00">base</text>
</g>
<!-- simple_smtp&#45;&gt;base -->
<g id="edge6" class="edge">
<title>simple_smtp&#45;&gt;base</title>
<path fill="none" stroke="black" stroke-dasharray="5,2" d="M52.25,-276.18C52.25,-245.37 52.25,-186.5 52.25,-186.5 52.25,-186.5 244.88,-186.5 244.88,-186.5"/>
<polygon fill="black" stroke="black" points="244.88,-190 254.88,-186.5 244.88,-183 244.88,-190"/>
</g>
<!-- net -->
<g id="node8" class="node">
<title>net</title>
<polygon fill="lightgray" stroke="black" points="310.88,-132.5 256.88,-132.5 256.88,-96.5 310.88,-96.5 310.88,-132.5"/>
<text xml:space="preserve" text-anchor="middle" x="283.88" y="-109.45" font-family="Times New Roman,serif" font-size="14.00">net</text>
</g>
<!-- simple_smtp&#45;&gt;net -->
<g id="edge7" class="edge">
<title>simple_smtp&#45;&gt;net</title>
<path fill="none" stroke="black" stroke-dasharray="5,2" d="M34.25,-276.25C34.25,-230.49 34.25,-114.5 34.25,-114.5 34.25,-114.5 245.17,-114.5 245.17,-114.5"/>
<polygon fill="black" stroke="black" points="245.17,-118 255.17,-114.5 245.17,-111 245.17,-118"/>
</g>
<!-- testing -->
<g id="node9" class="node">
<title>testing</title>
<polygon fill="lightgray" stroke="black" points="310.88,-60.5 256.88,-60.5 256.88,-24.5 310.88,-24.5 310.88,-60.5"/>
<text xml:space="preserve" text-anchor="middle" x="283.88" y="-37.45" font-family="Times New Roman,serif" font-size="14.00">testing</text>
</g>
<!-- simple_smtp&#45;&gt;testing -->
<g id="edge8" class="edge">
<title>simple_smtp&#45;&gt;testing</title>
<path fill="none" stroke="black" stroke-dasharray="5,2" d="M17.25,-276.38C17.25,-218.6 17.25,-42.5 17.25,-42.5 17.25,-42.5 245.33,-42.5 245.33,-42.5"/>
<polygon fill="black" stroke="black" points="245.33,-46 255.33,-42.5 245.33,-39 245.33,-46"/>
</g>
</g>
</svg>
